<svg width="28" height="28" viewBox="0 0 28 28" fill="none" xmlns="http://www.w3.org/2000/svg">
<g clip-path="url(#clip0_300_2311)">
<path fill-rule="evenodd" clip-rule="evenodd" d="M13.8828 4.98859C8.97068 4.98859 4.98859 8.97068 4.98859 13.8828C4.98859 18.795 8.97068 22.7771 13.8828 22.7771C16.2859 22.7771 18.4664 21.8241 20.067 20.2753C20.096 20.2363 20.1282 20.199 20.1635 20.1636C20.1989 20.1282 20.2363 20.096 20.2753 20.067C21.8241 18.4665 22.7771 16.2859 22.7771 13.8828C22.7771 8.97068 18.795 4.98859 13.8828 4.98859ZM13.8828 24.7771C16.5311 24.7771 18.9587 23.8322 20.8468 22.261L25.5436 26.9578C25.9341 27.3483 26.5672 27.3483 26.9578 26.9578C27.3483 26.5673 27.3483 25.9341 26.9578 25.5436L22.261 20.8468C23.8321 18.9587 24.7771 16.5311 24.7771 13.8828C24.7771 7.86611 19.8996 2.98859 13.8828 2.98859C7.86611 2.98859 2.98859 7.86611 2.98859 13.8828C2.98859 19.8996 7.86611 24.7771 13.8828 24.7771ZM10.1725 12.8826C9.6202 12.8826 9.17248 13.3303 9.17248 13.8826C9.17248 14.4349 9.6202 14.8826 10.1725 14.8826H17.5932C18.1455 14.8826 18.5932 14.4349 18.5932 13.8826C18.5932 13.3303 18.1455 12.8826 17.5932 12.8826H10.1725Z" fill="#1C8B6A"/>
</g>
<defs>
<clipPath id="clip0_300_2311">
<rect width="27" height="27" fill="white" transform="translate(0.5 0.5)"/>
</clipPath>
</defs>
</svg>
