<svg width="89" height="58" viewBox="0 0 89 58" fill="none" xmlns="http://www.w3.org/2000/svg">
<path d="M15.6941 35.63V32.3234H16.7442C17.2742 32.3234 17.7033 31.8943 17.7033 31.3642V28.0829C17.7033 27.5529 17.2742 27.1238 16.7442 27.1238H4.25498C3.72492 27.1238 3.29582 27.5529 3.29582 28.0829V31.3642C3.29582 31.8943 3.72492 32.3234 4.25498 32.3234H5.305V35.63L0.701061 42.965C0.342641 43.5404 0.362834 44.2724 0.756591 44.8277L9.13656 56.6152C9.30315 56.8474 9.51518 57.0241 9.75244 57.1453V44.1614C9.2981 43.8989 8.99017 43.4142 8.99017 42.8539C8.99017 42.0159 9.66662 41.3394 10.5046 41.3394C11.3426 41.3394 12.0191 42.0159 12.0191 42.8539C12.0191 43.4142 11.7111 43.9039 11.2568 44.1614V57.1402C11.4941 57.0241 11.7061 56.8474 11.8727 56.6102L20.2526 44.8227C20.6464 44.2724 20.6666 43.5354 20.3082 42.9599L15.6941 35.63Z" fill="#1C8B6A"/>
<path d="M10.0004 27.5832V18.1482H9.99539C10.2125 12.5699 0 8.71313 0 8.71313V18.1482H0.00504818C-0.212023 23.7264 10.0004 27.5832 10.0004 27.5832Z" fill="#1C8B6A"/>
<path d="M11.6012 13.7916L11.5962 27.5832C11.5962 27.5832 26.5236 21.9495 26.2056 13.7916H26.2107V0C26.2107 0 11.2832 5.63376 11.6012 13.7916Z" fill="#1C8B6A"/>
<path d="M32.8559 48.0406V46.4824L38.4701 46.4747V51.3938C37.6069 52.0813 36.7209 52.6007 35.8043 52.9444C34.8877 53.2882 33.9481 53.4638 32.9857 53.4638C31.6795 53.4638 30.5032 53.1812 29.4339 52.6313C28.3645 52.0813 27.5701 51.264 27.0278 50.2099C26.4854 49.1558 26.2104 47.9795 26.2104 46.6733C26.2104 45.3824 26.4778 44.1832 27.0201 43.0604C27.5624 41.9451 28.3339 41.1126 29.3498 40.5702C30.3657 40.0279 31.5268 39.7529 32.8482 39.7529C33.803 39.7529 34.6738 39.9057 35.4453 40.2189C36.2167 40.532 36.8278 40.9598 37.2632 41.5174C37.7062 42.075 38.0347 42.793 38.2638 43.6867L36.6827 44.1221C36.4841 43.4499 36.2397 42.9152 35.9418 42.5333C35.6439 42.1514 35.2238 41.8382 34.6738 41.6091C34.1238 41.3799 33.5204 41.2577 32.8482 41.2577C32.0462 41.2577 31.3511 41.3799 30.7706 41.6243C30.1901 41.8688 29.7165 42.1896 29.3575 42.5868C28.9985 42.984 28.7235 43.4194 28.5249 43.9006C28.1888 44.7179 28.0207 45.6116 28.0207 46.5664C28.0207 47.7503 28.227 48.7357 28.6318 49.5301C29.0367 50.3245 29.6324 50.9126 30.4116 51.3022C31.1907 51.6917 32.0156 51.8827 32.8864 51.8827C33.6426 51.8827 34.3835 51.7376 35.1092 51.4473C35.8348 51.157 36.3771 50.8439 36.7514 50.5154V48.0482H32.8559V48.0406Z" fill="#424242"/>
<path d="M41.0371 53.2424V39.9897H42.8321L49.7907 50.3932V39.9897H51.4712V53.2424H49.6685L42.7099 42.8312V53.2424H41.0371Z" fill="#424242"/>
<path d="M53.8301 48.9801L55.4876 48.835C55.564 49.4995 55.7473 50.0418 56.0376 50.4696C56.3278 50.8973 56.7709 51.2411 57.3743 51.5008C57.9777 51.7605 58.6575 51.8903 59.4061 51.8903C60.0783 51.8903 60.6664 51.791 61.1782 51.5924C61.69 51.3938 62.0719 51.1189 62.324 50.7751C62.576 50.4314 62.6983 50.0495 62.6983 49.637C62.6983 49.2245 62.576 48.8579 62.3392 48.5447C62.1025 48.2315 61.6976 47.9718 61.1477 47.7656C60.7887 47.6281 60.0019 47.4142 58.7874 47.1163C57.5729 46.8184 56.7174 46.5511 56.2285 46.2914C55.5945 45.9629 55.121 45.5505 54.8154 45.054C54.5099 44.5575 54.3495 44.0152 54.3495 43.4041C54.3495 42.7319 54.5404 42.1132 54.9224 41.525C55.3043 40.9445 55.8543 40.5015 56.5875 40.2036C57.3208 39.9057 58.1305 39.7529 59.0165 39.7529C60.0019 39.7529 60.865 39.9133 61.6136 40.2265C62.3622 40.5397 62.9427 41.0056 63.3475 41.6243C63.7523 42.2354 63.9662 42.9381 63.9968 43.7096L62.3163 43.8395C62.2247 42.9992 61.9191 42.3729 61.3997 41.9375C60.8803 41.5021 60.1088 41.2959 59.0929 41.2959C58.0312 41.2959 57.2597 41.4868 56.7709 41.8764C56.282 42.266 56.0452 42.7319 56.0452 43.2819C56.0452 43.7554 56.2133 44.1526 56.557 44.4582C56.8931 44.7637 57.7791 45.0769 59.1999 45.4053C60.6282 45.7262 61.606 46.0088 62.133 46.2532C62.9045 46.6122 63.4697 47.0552 63.844 47.6052C64.2107 48.1475 64.394 48.7815 64.394 49.4919C64.394 50.1946 64.1954 50.8592 63.7905 51.4855C63.3857 52.1118 62.8052 52.5931 62.049 52.9444C61.2928 53.2882 60.4449 53.4638 59.4978 53.4638C58.2985 53.4638 57.2903 53.2882 56.4806 52.9368C55.6709 52.5854 55.0369 52.0584 54.571 51.3557C54.0974 50.6606 53.853 49.8662 53.8301 48.9801Z" fill="#424242"/>
<path d="M66.5796 41.8612V39.9897H68.2066V41.8612H66.5796ZM66.5796 53.2424V43.6409H68.2066V53.2424H66.5796Z" fill="#424242"/>
<path d="M70.3829 54.0367L71.964 54.2735C72.0328 54.7624 72.2161 55.1137 72.514 55.3429C72.9188 55.6408 73.4688 55.7936 74.1715 55.7936C74.9277 55.7936 75.5083 55.6408 75.9131 55.3429C76.3256 55.045 76.6005 54.6172 76.7457 54.0749C76.8297 53.7465 76.8679 53.0514 76.8603 51.9896C76.1499 52.8299 75.2638 53.25 74.2021 53.25C72.8806 53.25 71.8571 52.7764 71.1391 51.8216C70.4135 50.8668 70.0544 49.7287 70.0544 48.392C70.0544 47.4753 70.2225 46.6275 70.5509 45.856C70.8794 45.0845 71.3606 44.4811 71.9946 44.061C72.6209 43.6409 73.3619 43.427 74.2174 43.427C75.3479 43.427 76.2874 43.8853 77.0207 44.8019V43.6485H78.5178V51.9515C78.5178 53.4486 78.365 54.5027 78.0595 55.129C77.7539 55.7554 77.2727 56.2442 76.6158 56.6032C75.9589 56.9622 75.1416 57.1456 74.1792 57.1456C73.0334 57.1456 72.1092 56.8859 71.4064 56.3741C70.6961 55.847 70.36 55.0679 70.3829 54.0367ZM71.7273 48.2697C71.7273 49.5301 71.9793 50.4467 72.4758 51.0272C72.9723 51.6077 73.6063 51.898 74.3549 51.898C75.1034 51.898 75.7298 51.6077 76.2339 51.0348C76.738 50.462 76.9901 49.553 76.9901 48.3308C76.9901 47.1545 76.7304 46.2685 76.211 45.6727C75.6916 45.0769 75.0652 44.779 74.3243 44.779C73.5987 44.779 72.9876 45.0693 72.4835 45.6574C71.9793 46.2379 71.7273 47.1087 71.7273 48.2697Z" fill="#424242"/>
<path d="M80.9788 53.2423V43.6409H82.4453V45.0081C83.1481 43.9541 84.1716 43.427 85.5007 43.427C86.0812 43.427 86.6083 43.5339 87.0971 43.7402C87.5783 43.9464 87.945 44.2214 88.1894 44.5575C88.4338 44.8936 88.6019 45.2984 88.6935 45.7567C88.7546 46.0546 88.7852 46.5817 88.7852 47.3379V53.2423H87.1582V47.399C87.1582 46.7344 87.0971 46.2379 86.9673 45.9095C86.8374 45.581 86.6159 45.3213 86.2951 45.1227C85.9743 44.9241 85.5923 44.8325 85.157 44.8325C84.4619 44.8325 83.8661 45.054 83.3619 45.4894C82.8578 45.9324 82.6057 46.765 82.6057 47.9948V53.2347H80.9788V53.2423Z" fill="#424242"/>
</svg>
