<svg width="28" height="28" viewBox="0 0 28 28" fill="none" xmlns="http://www.w3.org/2000/svg">
<g clip-path="url(#clip0_300_2309)">
<path fill-rule="evenodd" clip-rule="evenodd" d="M16.3583 4.99042C21.2705 4.99042 25.2526 8.97251 25.2526 13.8847C25.2526 18.7968 21.2705 22.7789 16.3583 22.7789C13.9552 22.7789 11.7746 21.8258 10.174 20.277C10.1451 20.2381 10.1129 20.2007 10.0776 20.1654C10.0422 20.13 10.0049 20.0979 9.96592 20.0689C8.41714 18.4684 7.46407 16.2878 7.46407 13.8847C7.46407 8.97251 11.4462 4.99042 16.3583 4.99042ZM7.98011 20.8486C6.40901 18.9605 5.46407 16.533 5.46407 13.8847C5.46407 7.86794 10.3416 2.99042 16.3583 2.99042C22.3751 2.99042 27.2526 7.86794 27.2526 13.8847C27.2526 19.9014 22.3751 24.7789 16.3583 24.7789C13.71 24.7789 11.2824 23.834 9.39432 22.2628L4.69756 26.9596C4.30703 27.3501 3.67387 27.3501 3.28334 26.9596C2.89282 26.5691 2.89282 25.9359 3.28334 25.5454L7.98011 20.8486ZM21.0685 13.8847C21.0685 14.437 20.6208 14.8847 20.0685 14.8847H17.3586V17.595C17.3586 18.1473 16.9109 18.595 16.3586 18.595C15.8063 18.595 15.3586 18.1473 15.3586 17.595V14.8847H12.6478C12.0956 14.8847 11.6478 14.437 11.6478 13.8847C11.6478 13.3324 12.0956 12.8847 12.6478 12.8847H15.3586V10.1743C15.3586 9.62203 15.8063 9.17432 16.3586 9.17432C16.9109 9.17432 17.3586 9.62203 17.3586 10.1743V12.8847H20.0685C20.6208 12.8847 21.0685 13.3324 21.0685 13.8847Z" fill="#1C8B6A"/>
</g>
<defs>
<clipPath id="clip0_300_2309">
<rect width="27" height="27" fill="white" transform="translate(0.5 0.5)"/>
</clipPath>
</defs>
</svg>
